<?xml version="1.0" standalone="no"?>
<!DOCTYPE svg PUBLIC "-//W3C//DTD SVG 20010904//EN"
 "http://www.w3.org/TR/2001/REC-SVG-20010904/DTD/svg10.dtd">
<svg version="1.0" xmlns="http://www.w3.org/2000/svg"
 width="1000.000000pt" height="1000.000000pt" viewBox="0 0 1000.000000 1000.000000"
 preserveAspectRatio="xMidYMid meet">

<g transform="translate(0.000000,1000.000000) scale(0.100000,-0.100000)"
fill="#000000" stroke="none">
<path d="M1840 9990 c-25 -5 -75 -9 -112 -9 -37 -1 -69 -5 -72 -10 -3 -4 -40
-11 -82 -15 -42 -3 -82 -10 -88 -15 -6 -5 -35 -12 -63 -16 -29 -4 -53 -10 -53
-15 0 -4 -20 -11 -45 -14 -24 -4 -47 -11 -50 -17 -4 -5 -14 -9 -23 -9 -9 0
-44 -14 -77 -30 -33 -16 -66 -30 -72 -30 -7 0 -13 -4 -13 -9 0 -5 -13 -12 -30
-16 -17 -4 -30 -10 -30 -15 0 -5 -14 -11 -30 -15 -17 -4 -30 -10 -30 -15 0 -4
-11 -11 -25 -14 -14 -4 -25 -11 -25 -16 0 -6 -5 -10 -10 -10 -12 0 -73 -41
-78 -52 -2 -5 -9 -8 -15 -8 -7 0 -28 -14 -47 -30 -19 -17 -50 -43 -68 -58 -43
-34 -220 -209 -247 -242 -11 -14 -31 -41 -45 -60 -13 -19 -30 -39 -37 -43 -7
-4 -13 -15 -13 -22 0 -8 -4 -15 -10 -15 -5 0 -12 -11 -16 -24 -3 -14 -12 -27
-20 -30 -8 -3 -14 -12 -14 -21 0 -8 -4 -15 -10 -15 -5 0 -10 -6 -10 -14 0 -8
-6 -21 -14 -28 -7 -8 -17 -25 -21 -38 -4 -14 -11 -27 -14 -30 -11 -9 -71 -139
-71 -155 0 -8 -4 -15 -10 -15 -5 0 -12 -16 -16 -35 -3 -19 -10 -38 -15 -40 -4
-3 -11 -26 -15 -50 -3 -25 -10 -48 -14 -50 -5 -3 -12 -30 -15 -60 -4 -30 -11
-55 -15 -55 -7 0 -17 -62 -43 -275 -17 -145 -17 -6255 0 -6400 26 -213 36
-275 43 -275 4 0 11 -25 15 -55 3 -30 10 -57 15 -60 4 -2 11 -25 14 -50 4 -24
11 -47 15 -50 5 -2 12 -21 15 -40 4 -19 11 -35 16 -35 6 0 10 -7 10 -15 0 -16
60 -146 71 -155 3 -3 10 -16 14 -30 4 -13 14 -30 21 -38 8 -7 14 -20 14 -28 0
-8 5 -14 10 -14 6 0 10 -7 10 -15 0 -9 6 -18 14 -21 8 -3 17 -16 20 -30 4 -13
11 -24 16 -24 6 0 10 -7 10 -15 0 -7 6 -18 13 -22 7 -4 24 -24 37 -43 14 -19
34 -46 45 -60 27 -33 204 -208 247 -242 18 -15 49 -41 68 -58 19 -16 40 -30
47 -30 6 0 13 -3 15 -7 5 -12 66 -53 78 -53 5 0 10 -4 10 -10 0 -5 11 -12 25
-16 14 -3 25 -10 25 -14 0 -5 13 -11 30 -15 16 -4 30 -10 30 -15 0 -5 14 -11
30 -15 17 -4 30 -11 30 -16 0 -5 6 -9 13 -9 6 0 39 -14 72 -30 33 -16 68 -30
77 -30 9 0 19 -4 23 -9 3 -6 26 -13 50 -17 25 -3 45 -10 45 -14 0 -5 24 -11
53 -15 28 -4 57 -11 63 -16 6 -5 44 -12 85 -15 41 -4 79 -10 84 -14 29 -21
478 -25 3300 -25 2819 0 3291 4 3320 25 6 4 43 10 84 14 41 3 79 10 85 15 6 5
35 12 64 16 28 4 52 10 52 15 0 4 20 11 45 14 24 4 47 11 50 17 4 5 14 9 23 9
9 0 44 14 77 30 33 16 66 30 73 30 6 0 12 4 12 9 0 5 14 12 30 16 17 4 30 10
30 15 0 5 14 11 30 15 17 4 30 10 30 15 0 4 11 11 25 14 14 4 25 11 25 16 0 6
5 10 10 10 12 0 73 41 78 53 2 4 9 7 15 7 7 0 28 14 47 30 19 17 50 43 68 58
43 34 220 209 247 242 11 14 31 41 45 60 13 19 30 39 37 43 7 4 13 15 13 22 0
8 4 15 10 15 5 0 12 11 16 24 3 14 12 27 20 30 8 3 14 12 14 21 0 8 5 15 10
15 6 0 10 6 10 14 0 8 6 21 14 28 7 8 17 25 21 38 4 14 10 27 14 30 10 8 54
103 54 117 0 7 4 13 9 13 4 0 8 9 8 20 0 11 4 20 10 20 5 0 12 16 16 35 3 19
10 38 15 40 4 3 11 26 15 50 3 25 10 48 14 50 5 3 12 30 15 60 4 30 11 55 15
55 7 0 17 63 43 275 17 145 17 6256 0 6400 -26 214 -36 275 -43 275 -4 0 -11
25 -15 55 -3 30 -10 57 -15 60 -4 2 -11 25 -14 50 -4 24 -11 47 -15 50 -5 2
-12 21 -15 40 -4 19 -11 35 -16 35 -6 0 -10 9 -10 20 0 11 -4 20 -8 20 -5 0
-9 6 -9 13 0 14 -44 109 -54 117 -4 3 -10 16 -14 30 -4 13 -14 30 -21 38 -8 7
-14 20 -14 28 0 8 -4 14 -10 14 -5 0 -10 7 -10 15 0 9 -6 18 -14 21 -8 3 -17
16 -20 30 -4 13 -11 24 -16 24 -6 0 -10 7 -10 15 0 7 -6 18 -13 22 -7 4 -24
24 -37 43 -14 19 -34 46 -45 60 -27 33 -204 208 -247 242 -18 15 -49 41 -68
58 -19 16 -40 30 -47 30 -6 0 -13 3 -15 8 -5 11 -66 52 -78 52 -5 0 -10 4 -10
10 0 5 -11 12 -25 16 -14 3 -25 10 -25 14 0 5 -13 11 -30 15 -16 4 -30 10 -30
15 0 5 -13 11 -30 15 -16 4 -30 11 -30 16 0 5 -6 9 -12 9 -7 0 -40 14 -73 30
-33 16 -68 30 -77 30 -9 0 -19 4 -23 9 -3 6 -26 13 -50 17 -25 3 -45 10 -45
14 0 5 -24 11 -52 15 -29 4 -58 11 -63 16 -6 4 -42 11 -80 14 -39 4 -79 11
-90 15 -11 5 -54 12 -95 16 -113 9 -6288 13 -6340 4z m3430 -659 c0 -5 35 -12
78 -15 104 -7 285 -29 297 -37 6 -4 42 -10 80 -14 39 -4 75 -11 80 -15 6 -5
36 -11 68 -15 31 -4 60 -11 62 -15 3 -5 30 -12 60 -15 30 -4 55 -11 55 -15 0
-4 25 -11 55 -15 30 -3 55 -10 55 -15 0 -4 23 -11 50 -15 28 -4 50 -11 50 -15
0 -5 18 -11 40 -15 22 -4 40 -11 40 -15 0 -5 20 -12 45 -16 25 -3 45 -10 45
-15 0 -5 7 -9 16 -9 9 0 28 -6 42 -14 28 -14 41 -20 127 -56 28 -11 62 -27 77
-35 14 -8 33 -15 42 -15 9 0 16 -4 16 -9 0 -5 14 -12 30 -16 17 -4 30 -10 30
-15 0 -5 14 -11 30 -15 17 -4 30 -10 30 -15 0 -5 14 -11 30 -15 17 -4 30 -11
30 -16 0 -5 6 -9 14 -9 8 0 21 -6 28 -13 12 -13 34 -23 51 -25 4 -1 14 -8 22
-15 8 -8 49 -35 92 -61 110 -66 116 -70 131 -83 7 -7 22 -13 34 -13 28 0 128
-69 128 -88 0 -10 33 -41 73 -70 41 -29 87 -64 103 -78 16 -13 49 -41 74 -61
81 -68 435 -427 485 -493 27 -36 60 -76 72 -90 12 -14 30 -35 41 -47 10 -13
22 -19 26 -16 4 4 4 0 0 -10 -3 -10 -1 -17 5 -17 6 0 11 -5 11 -11 0 -6 20
-36 43 -67 24 -31 71 -100 105 -152 34 -52 66 -100 72 -107 5 -7 10 -17 10
-22 0 -5 6 -16 13 -23 6 -7 23 -36 37 -63 14 -28 27 -52 30 -55 3 -3 28 -51
55 -106 28 -56 53 -100 56 -98 4 2 10 -12 13 -31 4 -19 11 -35 15 -35 5 0 12
-16 15 -35 4 -19 11 -35 15 -35 5 0 12 -16 15 -35 4 -19 11 -35 16 -35 4 0 11
-18 15 -40 4 -22 10 -40 15 -40 5 0 11 -18 15 -40 4 -22 11 -40 16 -40 5 0 9
-10 9 -22 0 -13 7 -36 15 -51 8 -15 17 -43 21 -63 3 -19 10 -37 15 -40 5 -3 9
-16 9 -30 0 -13 5 -24 11 -24 6 0 9 -9 6 -20 -3 -11 -1 -23 4 -26 5 -3 9 -19
9 -35 0 -17 4 -28 9 -25 5 3 12 -21 16 -54 4 -33 11 -60 15 -60 4 0 11 -31 15
-70 4 -38 11 -68 15 -65 4 3 11 -33 15 -80 4 -47 10 -85 15 -85 4 0 11 -46 15
-102 4 -57 12 -109 19 -117 8 -10 11 -148 11 -486 0 -338 -3 -476 -11 -486 -7
-8 -15 -60 -19 -116 -4 -57 -11 -103 -15 -103 -4 0 -11 -36 -15 -80 -4 -44
-11 -80 -15 -80 -4 0 -11 -31 -15 -70 -4 -38 -11 -68 -15 -65 -4 3 -11 -22
-15 -55 -4 -33 -11 -60 -15 -60 -9 0 -21 -52 -20 -87 0 -13 -5 -23 -10 -23 -6
0 -10 -8 -10 -19 0 -10 -7 -32 -15 -47 -8 -16 -15 -39 -15 -51 0 -13 -4 -23
-9 -23 -5 0 -12 -16 -15 -35 -4 -19 -13 -47 -21 -62 -8 -15 -15 -38 -15 -50 0
-13 -4 -23 -10 -23 -5 0 -12 -16 -16 -35 -3 -19 -10 -35 -14 -35 -4 0 -11 -16
-14 -35 -4 -19 -11 -35 -15 -35 -5 0 -12 -16 -15 -35 -4 -19 -11 -35 -16 -35
-5 0 -12 -16 -16 -35 -3 -19 -10 -35 -14 -35 -7 0 -18 -29 -18 -47 0 -3 -4 -9
-9 -12 -5 -3 -24 -37 -43 -76 -19 -38 -41 -76 -47 -83 -7 -7 -13 -20 -13 -28
0 -8 -4 -14 -9 -14 -5 0 -12 -11 -15 -25 -4 -14 -11 -25 -16 -25 -6 0 -10 -5
-10 -11 0 -11 -67 -128 -79 -139 -4 -3 -28 -39 -56 -80 -27 -41 -51 -77 -54
-80 -4 -3 -18 -23 -33 -45 -15 -22 -39 -53 -53 -69 -14 -16 -25 -32 -25 -35 0
-3 -13 -20 -28 -37 -15 -17 -40 -48 -57 -68 -16 -20 -48 -58 -70 -84 -61 -73
-375 -383 -428 -422 -26 -19 -44 -41 -42 -48 3 -7 0 -10 -6 -7 -5 4 -36 -14
-67 -39 -31 -25 -61 -50 -67 -54 -5 -4 -26 -19 -45 -32 -19 -14 -40 -29 -46
-35 -6 -5 -22 -17 -34 -25 -12 -8 -28 -20 -34 -26 -6 -6 -16 -13 -21 -15 -14
-6 -189 -122 -195 -130 -3 -3 -16 -10 -30 -14 -13 -4 -30 -14 -38 -21 -7 -8
-20 -14 -28 -14 -8 0 -14 -4 -14 -10 0 -5 -6 -10 -14 -10 -8 0 -21 -6 -28 -14
-8 -7 -25 -17 -38 -21 -14 -4 -27 -10 -30 -14 -5 -6 -41 -24 -199 -100 -34
-17 -70 -31 -78 -31 -8 0 -12 -4 -9 -9 4 -5 -12 -12 -34 -16 -22 -4 -40 -10
-40 -15 0 -4 -16 -11 -35 -14 -19 -4 -35 -11 -35 -16 0 -4 -18 -11 -40 -15
-22 -4 -40 -10 -40 -15 0 -4 -20 -11 -45 -14 -25 -4 -45 -11 -45 -15 0 -5 -20
-12 -45 -15 -25 -4 -45 -11 -45 -15 0 -5 -21 -12 -47 -16 -27 -4 -50 -10 -53
-14 -5 -7 -84 -27 -147 -38 -18 -3 -33 -9 -33 -14 0 -5 -10 -9 -22 -9 -44 0
-108 -12 -108 -20 0 -4 -36 -11 -80 -15 -44 -4 -80 -11 -80 -15 0 -4 -46 -11
-102 -15 -58 -4 -106 -12 -110 -19 -10 -16 -976 -16 -986 0 -4 7 -52 15 -109
19 -57 4 -103 11 -103 15 0 4 -36 11 -80 15 -44 4 -80 11 -80 15 0 8 -64 20
-107 20 -12 0 -25 5 -28 10 -3 6 -19 10 -35 10 -16 0 -32 4 -35 10 -3 5 -28
12 -56 16 -27 4 -52 10 -54 15 -3 4 -26 11 -50 15 -25 3 -45 10 -45 15 0 4
-20 11 -45 15 -25 3 -45 10 -45 15 0 4 -20 11 -45 15 -25 3 -45 10 -45 14 0 5
-18 11 -40 15 -22 4 -40 11 -40 15 0 5 -16 12 -35 16 -19 3 -35 10 -35 14 0 4
-17 11 -37 15 -21 4 -40 10 -43 13 -3 4 -21 14 -40 23 -103 49 -236 115 -240
120 -3 4 -16 10 -30 14 -13 4 -30 14 -38 21 -7 8 -20 14 -28 14 -8 0 -14 4
-14 9 0 5 -13 12 -30 16 -17 4 -30 10 -30 15 0 5 -10 12 -22 16 -13 4 -25 10
-28 13 -5 7 -88 62 -105 71 -16 8 -99 64 -111 75 -6 5 -22 17 -34 25 -12 8
-42 30 -66 47 -23 18 -48 33 -53 33 -6 0 -11 3 -11 8 0 4 -28 29 -63 57 -34
27 -64 52 -67 55 -3 3 -34 29 -70 59 -111 93 -442 431 -483 494 -8 13 -22 30
-29 38 -8 8 -43 52 -78 99 -35 47 -66 87 -70 90 -3 3 -29 41 -57 85 -29 44
-56 85 -61 90 -21 25 -154 256 -186 322 -6 13 -14 23 -18 23 -3 0 -9 14 -13
30 -4 17 -10 30 -15 30 -5 0 -11 13 -15 30 -4 17 -10 30 -15 30 -4 0 -11 16
-14 35 -4 19 -11 35 -16 35 -6 0 -10 5 -10 11 0 10 -33 90 -50 121 -6 10 -10
23 -10 30 0 7 -6 25 -14 40 -8 15 -17 40 -21 57 -4 17 -11 33 -16 36 -5 4 -9
15 -9 26 0 10 -4 19 -8 19 -5 0 -9 6 -10 13 -5 41 -15 77 -22 77 -4 0 -11 20
-14 45 -4 25 -11 45 -15 45 -5 0 -12 25 -16 55 -3 30 -10 55 -15 55 -4 0 -11
25 -15 55 -3 30 -10 55 -15 55 -4 0 -11 32 -15 70 -4 39 -11 70 -15 70 -4 0
-11 36 -15 80 -4 44 -11 80 -15 80 -4 0 -11 46 -15 103 -4 56 -12 108 -18 115
-15 18 -21 727 -8 867 17 174 35 319 43 330 3 6 10 43 13 83 4 40 11 75 16 77
4 3 11 34 14 70 4 36 11 65 15 65 4 0 11 25 15 55 3 30 10 55 15 55 4 0 11 25
15 55 3 30 10 55 14 55 5 0 11 19 15 42 4 23 11 47 15 53 5 5 12 24 16 40 5
17 9 32 10 35 5 15 19 49 31 77 8 17 14 38 14 47 0 9 5 16 10 16 6 0 10 8 10
18 1 9 9 35 20 57 11 22 19 48 20 58 0 9 4 17 10 17 5 0 12 16 16 35 3 19 10
35 14 35 5 0 11 14 15 30 4 17 10 30 15 30 5 0 11 14 15 30 4 17 11 30 15 30
5 0 12 16 16 35 3 20 9 34 12 31 2 -3 14 14 25 37 12 23 23 44 26 47 3 3 17
27 31 55 14 27 31 56 38 63 6 7 12 20 12 28 0 8 4 14 9 14 5 0 13 10 17 23 4
12 10 24 13 27 4 3 18 23 31 45 13 22 26 42 29 45 4 3 24 32 46 65 22 33 50
71 62 85 13 14 23 28 23 33 0 4 6 15 13 23 6 8 17 20 22 27 6 7 28 34 50 62
22 27 45 55 50 62 6 6 28 33 50 59 89 106 300 319 405 410 25 21 57 50 72 64
38 35 99 82 261 204 16 11 34 26 40 31 7 6 30 22 52 35 22 13 42 27 45 30 3 3
23 17 45 30 22 13 42 26 45 29 7 9 39 27 88 51 23 12 42 27 42 33 0 5 3 8 6 4
4 -3 23 5 43 18 19 14 41 25 48 25 7 0 13 4 13 9 0 5 14 12 30 16 17 4 30 10
30 15 0 5 14 11 30 15 17 4 30 10 30 15 0 5 14 11 30 15 17 4 30 11 30 16 0 5
5 9 11 9 11 0 50 17 212 89 38 17 75 31 83 31 8 0 14 4 14 9 0 6 20 13 45 17
25 3 43 10 40 14 -3 4 15 11 40 14 25 4 45 11 45 16 0 4 23 11 50 15 28 4 50
11 50 15 0 4 22 11 50 15 27 4 52 11 55 15 3 5 30 12 60 15 30 4 55 11 55 15
0 4 29 11 65 15 36 3 67 10 70 14 2 5 37 12 77 16 40 3 77 10 83 13 12 9 182
31 293 38 45 3 82 10 82 15 0 5 144 9 335 9 198 0 335 -4 335 -9z"/>
<path d="M5202 8538 c-21 -29 -99 -141 -172 -248 -74 -107 -167 -242 -207
-300 -39 -58 -97 -141 -127 -185 -44 -65 -529 -768 -1151 -1670 -685 -993
-686 -994 -778 -1194 -207 -448 -260 -1031 -141 -1541 129 -552 457 -1016 924
-1304 667 -413 1610 -459 2329 -115 233 111 407 234 582 408 252 252 425 546
524 889 161 561 116 1190 -120 1689 -231 488 -615 846 -1125 1048 -255 102
-512 152 -815 162 l-190 6 -181 -264 c-100 -145 -180 -266 -178 -268 2 -2 49
5 106 15 143 26 550 26 683 1 377 -73 606 -180 874 -407 120 -102 283 -324
358 -490 19 -41 39 -84 44 -95 5 -11 20 -56 35 -100 106 -331 123 -722 44
-1060 -19 -82 -62 -223 -79 -260 -6 -11 -24 -51 -41 -90 -87 -194 -249 -402
-425 -544 -309 -250 -690 -374 -1145 -375 -341 -1 -598 55 -867 189 -325 161
-592 443 -732 775 -206 485 -194 1116 30 1579 23 47 53 104 67 126 14 22 26
49 28 60 1 18 192 299 601 888 68 98 133 197 144 218 11 22 78 124 149 227 71
103 152 221 180 262 28 41 108 158 178 260 70 102 229 333 352 513 124 180
284 414 357 520 72 106 155 226 183 267 28 41 107 156 175 255 69 99 125 186
125 193 0 9 -63 12 -280 12 l-279 0 -39 -52z"/>
<path d="M6475 8507 c-22 -34 -42 -64 -45 -67 -3 -3 -17 -23 -30 -45 -13 -22
-26 -42 -29 -45 -11 -9 -51 -69 -51 -75 0 -4 -6 -12 -12 -20 -23 -23 -50 -63
-48 -71 1 -4 -2 -10 -7 -13 -15 -10 -73 -88 -73 -98 0 -4 -10 -19 -23 -33 -12
-14 -34 -43 -47 -65 -23 -38 -32 -50 -55 -78 -6 -7 -22 -30 -35 -52 -13 -22
-26 -42 -29 -45 -4 -3 -28 -39 -56 -80 -27 -41 -52 -77 -55 -80 -3 -3 -23 -32
-45 -65 -22 -33 -42 -62 -46 -65 -3 -3 -16 -23 -29 -45 -13 -22 -29 -45 -35
-52 -23 -28 -33 -41 -80 -113 -28 -41 -52 -77 -55 -80 -11 -11 -50 -69 -50
-75 0 -3 -5 -11 -10 -18 -41 -48 -50 -62 -50 -73 0 -7 -3 -14 -8 -16 -11 -5
-72 -85 -72 -95 0 -4 -11 -21 -25 -36 l-26 -27 153 0 153 0 65 98 c36 53 67
99 70 102 15 15 50 71 50 80 0 5 4 10 8 10 8 0 72 86 72 96 0 4 14 23 30 44
17 21 30 42 30 48 0 6 4 12 8 14 4 2 19 21 32 43 25 41 27 43 60 84 11 13 20
30 20 38 0 7 4 13 9 13 5 0 20 17 32 38 13 20 26 39 30 42 12 9 99 140 99 149
0 5 3 11 8 13 4 2 25 30 47 63 43 64 53 78 73 100 6 7 12 18 12 23 0 5 9 20
20 33 11 13 23 29 28 34 8 10 69 100 105 153 9 15 20 35 23 44 3 9 12 19 20
22 8 3 14 12 14 21 0 8 3 15 8 15 4 0 16 16 27 36 11 20 32 50 47 68 15 17 30
39 34 49 3 9 9 17 13 17 12 0 43 59 36 70 -3 5 0 7 8 4 8 -3 17 2 20 10 6 14
-12 16 -146 16 l-152 -1 -40 -62z"/>
<path d="M4852 5610 c-19 -18 -22 -31 -22 -109 0 -74 3 -93 21 -115 25 -32 49
-33 77 -3 19 20 22 35 22 115 0 79 -3 95 -20 112 -26 26 -50 25 -78 0z"/>
<path d="M4890 5213 c0 -6 -9 -93 -21 -194 -29 -266 -48 -441 -59 -549 -5 -52
-17 -156 -26 -231 -10 -75 -14 -144 -11 -153 5 -13 23 -16 114 -16 59 0 113 4
120 8 8 5 7 46 -7 162 -10 85 -25 229 -35 320 -9 91 -20 203 -25 251 -6 47
-17 157 -25 244 -9 87 -18 161 -20 164 -3 2 -5 0 -5 -6z"/>
<path d="M3162 4017 c-12 -13 -22 -33 -22 -45 0 -38 36 -52 136 -52 88 0 94 1
113 26 27 34 26 40 -4 69 -22 23 -32 25 -113 25 -80 0 -91 -2 -110 -23z"/>
<path d="M6275 4015 c-31 -30 -31 -46 -2 -73 21 -19 35 -22 119 -22 79 0 98 3
111 18 23 25 21 58 -3 82 -17 17 -33 20 -110 20 -83 0 -93 -2 -115 -25z"/>
<path d="M4790 3788 c0 -32 6 -106 14 -165 8 -59 17 -149 20 -199 4 -50 9
-101 12 -115 3 -13 8 -59 11 -101 3 -43 9 -78 13 -78 4 0 10 -51 14 -112 4
-62 10 -142 14 -178 l7 -65 6 60 c4 33 7 94 8 136 1 41 5 79 11 85 5 5 12 72
16 149 4 77 10 145 15 150 4 6 11 69 14 140 4 72 10 141 15 155 5 14 11 63 14
110 l5 85 -105 0 -104 0 0 -57z"/>
<path d="M4846 2548 c-12 -16 -16 -47 -16 -111 0 -80 2 -90 25 -112 30 -31 40
-31 70 0 23 22 25 32 25 118 0 78 -3 97 -18 110 -26 24 -68 21 -86 -5z"/>
</g>
</svg>
